<svg xmlns="http://www.w3.org/2000/svg">
  <symbol id="wysiwyg-icon-undo" viewBox="0 0 24 24" fill="none">
    <path d="M9 14L4 9M4 9L9 4M4 9H14.5C15.2223 9 15.9375 9.14226 16.6048 9.41866C17.272 9.69506 17.8784 10.1002 18.3891 10.6109C18.8998 11.1216 19.3049 11.728 19.5813 12.3952C19.8577 13.0625 20 13.7777 20 14.5C20 15.2223 19.8577 15.9375 19.5813 16.6048C19.3049 17.272 18.8998 17.8784 18.3891 18.3891C17.8784 18.8998 17.272 19.3049 16.6048 19.5813C15.9375 19.8577 15.2223 20 14.5 20H11" stroke="currentColor" stroke-width="2" stroke-linecap="round" stroke-linejoin="round"></path>
  </symbol>

  <symbol id="wysiwyg-icon-redo" viewBox="0 0 24 24" fill="none">
    <path d="M15 14L20 9M20 9L15 4M20 9H9.5C8.04131 9 6.64236 9.57946 5.61091 10.6109C4.57946 11.6424 4 13.0413 4 14.5C4 15.2223 4.14226 15.9375 4.41866 16.6048C4.69506 17.272 5.10019 17.8784 5.61091 18.3891C6.64236 19.4205 8.04131 20 9.5 20H13" stroke="currentColor" stroke-width="2" stroke-linecap="round" stroke-linejoin="round"></path>
  </symbol>

  <symbol id="wysiwyg-icon-bold" viewBox="0 0 24 24" fill="none">
    <path d="M6 12H15C16.0609 12 17.0783 12.4214 17.8284 13.1716C18.5786 13.9217 19 14.9391 19 16C19 17.0609 18.5786 18.0783 17.8284 18.8284C17.0783 19.5786 16.0609 20 15 20H7C6.73478 20 6.48043 19.8946 6.29289 19.7071C6.10536 19.5196 6 19.2652 6 19V5C6 4.73478 6.10536 4.48043 6.29289 4.29289C6.48043 4.10536 6.73478 4 7 4H14C15.0609 4 16.0783 4.42143 16.8284 5.17157C17.5786 5.92172 18 6.93913 18 8C18 9.06087 17.5786 10.0783 16.8284 10.8284C16.0783 11.5786 15.0609 12 14 12" stroke="currentColor" stroke-width="2" stroke-linecap="round" stroke-linejoin="round"></path>
  </symbol>

  <symbol id="wysiwyg-icon-italic" viewBox="0 0 24 24" fill="none">
    <path d="M19 4H10M14 20H5M15 4L9 20" stroke="currentColor" stroke-width="2" stroke-linecap="round" stroke-linejoin="round"></path>
  </symbol>

  <symbol id="wysiwyg-icon-underline" viewBox="0 0 24 24" fill="none">
    <path d="M6 4V10C6 11.5913 6.63214 13.1174 7.75736 14.2426C8.88258 15.3679 10.4087 16 12 16C13.5913 16 15.1174 15.3679 16.2426 14.2426C17.3679 13.1174 18 11.5913 18 10V4M4 20H20" stroke="currentColor" stroke-width="2" stroke-linecap="round" stroke-linejoin="round"></path>
  </symbol>

  <symbol id="wysiwyg-icon-paragraph" viewBox="0 0 24 24" fill="none">
    <path d="M13 4V20M17 4V20M19 4H9.5C8.30653 4 7.16193 4.47411 6.31802 5.31802C5.47411 6.16193 5 7.30653 5 8.5C5 9.69347 5.47411 10.8381 6.31802 11.682C7.16193 12.5259 8.30653 13 9.5 13H13" stroke="currentColor" stroke-width="2" stroke-linecap="round" stroke-linejoin="round"></path>
  </symbol>

  <symbol id="wysiwyg-icon-indent" viewBox="0 0 24 24" fill="none">
    <path d="M21 5H11M21 12H11M21 19H11M3 8L7 12L3 16" stroke="currentColor" stroke-width="2" stroke-linecap="round" stroke-linejoin="round"></path>
  </symbol>

  <symbol id="wysiwyg-icon-outdent" viewBox="0 0 24 24" fill="none">
    <path d="M21 5H11M21 12H11M21 19H11M7 8L3 12L7 16" stroke="currentColor" stroke-width="2" stroke-linecap="round" stroke-linejoin="round"></path>
  </symbol>

  <symbol id="wysiwyg-icon-link" viewBox="0 0 24 24" fill="none">
    <path d="M9.99996 13C10.4294 13.5741 10.9773 14.0492 11.6065 14.3929C12.2357 14.7367 12.9315 14.9411 13.6466 14.9923C14.3617 15.0435 15.0795 14.9404 15.7513 14.6898C16.4231 14.4392 17.0331 14.0471 17.54 13.54L20.54 10.54C21.4507 9.59699 21.9547 8.33397 21.9433 7.02299C21.9319 5.71201 21.4061 4.45794 20.479 3.5309C19.552 2.60386 18.2979 2.07802 16.987 2.06663C15.676 2.05523 14.413 2.55921 13.47 3.47L11.75 5.18M14 11C13.5705 10.4259 13.0226 9.95081 12.3934 9.60706C11.7642 9.2633 11.0684 9.05888 10.3533 9.00766C9.63816 8.95645 8.92037 9.05963 8.24861 9.31021C7.57685 9.5608 6.96684 9.95293 6.45996 10.46L3.45996 13.46C2.54917 14.403 2.04519 15.666 2.05659 16.977C2.06798 18.288 2.59382 19.542 3.52086 20.4691C4.4479 21.3961 5.70197 21.922 7.01295 21.9334C8.32393 21.9448 9.58694 21.4408 10.53 20.53L12.24 18.82" stroke="currentColor" stroke-width="2" stroke-linecap="round" stroke-linejoin="round"></path>
  </symbol>

  <symbol id="wysiwyg-icon-unlink" viewBox="0 0 24 24" fill="none">
    <path d="M18.84 12.25L20.56 10.54H20.54C21.4606 9.58604 21.9651 8.30573 21.9426 6.98018C21.9201 5.65462 21.3725 4.39217 20.42 3.47C19.4869 2.57019 18.2412 2.06739 16.945 2.06739C15.6488 2.06739 14.4031 2.57019 13.47 3.47L11.75 5.18M5.17 11.75L3.46 13.46C2.53937 14.414 2.03493 15.6943 2.05742 17.0198C2.07992 18.3454 2.62753 19.6078 3.58 20.53C4.51305 21.4298 5.75876 21.9326 7.055 21.9326C8.35124 21.9326 9.59695 21.4298 10.53 20.53L12.24 18.82M8 2V5M2 8H5M16 19V22M19 16H22" stroke="currentColor" stroke-width="2" stroke-linecap="round" stroke-linejoin="round"></path>
  </symbol>

  <symbol id="wysiwyg-icon-font-family" viewBox="0 0 24 24" fill="none">
    <path d="M2 16L6.039 6.31001C6.07698 6.21891 6.14107 6.1411 6.22319 6.08636C6.30532 6.03162 6.4018 6.00241 6.5005 6.00241C6.5992 6.00241 6.69568 6.03162 6.77781 6.08636C6.85993 6.1411 6.92402 6.21891 6.962 6.31001L11 16M22 9.00001V16M3.304 13H9.696M22 12.5C22 14.433 20.433 16 18.5 16C16.567 16 15 14.433 15 12.5C15 10.567 16.567 9.00001 18.5 9.00001C20.433 9.00001 22 10.567 22 12.5Z" stroke="currentColor" stroke-width="2" stroke-linecap="round" stroke-linejoin="round"></path>
  </symbol>

  <symbol id="wysiwyg-icon-text-color" viewBox="0 0 24 24" fill="none">
    <path d="M4 20H20M6 16L12 4L18 16M8 12H16" stroke="currentColor" stroke-width="2" stroke-linecap="round" stroke-linejoin="round"></path>
  </symbol>

  <symbol id="wysiwyg-icon-highlight" viewBox="0 0 24 24" fill="none">
    <path d="M9 11L3 17V20H12L15 17M22 12L17.4 16.6C17.0261 16.9665 16.5235 17.1717 16 17.1717C15.4765 17.1717 14.9739 16.9665 14.6 16.6L9.4 11.4C9.03355 11.0261 8.82829 10.5235 8.82829 10C8.82829 9.47649 9.03355 8.97386 9.4 8.6L14 4" stroke="currentColor" stroke-width="2" stroke-linecap="round" stroke-linejoin="round"></path>
  </symbol>

  <symbol id="wysiwyg-icon-table" viewBox="0 0 24 24" fill="none">
    <path d="M12 3V21M3 9H21M3 15H21M5 3H19C20.1046 3 21 3.89543 21 5V19C21 20.1046 20.1046 21 19 21H5C3.89543 21 3 20.1046 3 19V5C3 3.89543 3.89543 3 5 3Z" stroke="currentColor" stroke-width="2" stroke-linecap="round" stroke-linejoin="round"></path>
  </symbol>

  <symbol id="wysiwyg-icon-line-break" viewBox="0 0 24 24" fill="none">
    <path d="M20 4V11C20 12.0609 19.5786 13.0783 18.8284 13.8284C18.0783 14.5786 17.0609 15 16 15H4M4 15L9 10M4 15L9 20" stroke="currentColor" stroke-width="2" stroke-linecap="round" stroke-linejoin="round"></path>
  </symbol>

  <symbol id="wysiwyg-icon-quote" viewBox="0 0 24 24" fill="none">
    <path d="M16 3C15.4696 3 14.9609 3.21071 14.5858 3.58579C14.2107 3.96086 14 4.46957 14 5V11C14 11.5304 14.2107 12.0391 14.5858 12.4142C14.9609 12.7893 15.4696 13 16 13C16.2652 13 16.5196 13.1054 16.7071 13.2929C16.8946 13.4804 17 13.7348 17 14V15C17 15.5304 16.7893 16.0391 16.4142 16.4142C16.0391 16.7893 15.5304 17 15 17C14.7348 17 14.4804 17.1054 14.2929 17.2929C14.1054 17.4804 14 17.7348 14 18V20C14 20.2652 14.1054 20.5196 14.2929 20.7071C14.4804 20.8946 14.7348 21 15 21C16.5913 21 18.1174 20.3679 19.2426 19.2426C20.3679 18.1174 21 16.5913 21 15V5C21 4.46957 20.7893 3.96086 20.4142 3.58579C20.0391 3.21071 19.5304 3 19 3H16Z" stroke="currentColor" stroke-width="2" stroke-linecap="round" stroke-linejoin="round"></path>
    <path d="M5 3C4.46957 3 3.96086 3.21071 3.58579 3.58579C3.21071 3.96086 3 4.46957 3 5V11C3 11.5304 3.21071 12.0391 3.58579 12.4142C3.96086 12.7893 4.46957 13 5 13C5.26522 13 5.51957 13.1054 5.70711 13.2929C5.89464 13.4804 6 13.7348 6 14V15C6 15.5304 5.78929 16.0391 5.41421 16.4142C5.03914 16.7893 4.53043 17 4 17C3.73478 17 3.48043 17.1054 3.29289 17.2929C3.10536 17.4804 3 17.7348 3 18V20C3 20.2652 3.10536 20.5196 3.29289 20.7071C3.48043 20.8946 3.73478 21 4 21C5.5913 21 7.11742 20.3679 8.24264 19.2426C9.36786 18.1174 10 16.5913 10 15V5C10 4.46957 9.78929 3.96086 9.41421 3.58579C9.03914 3.21071 8.53043 3 8 3H5Z" stroke="currentColor" stroke-width="2" stroke-linecap="round" stroke-linejoin="round"></path>
  </symbol>

  <symbol id="wysiwyg-icon-heading-1" viewBox="0 0 24 24" fill="none">
    <path d="M4 12H12M4 18V6M12 18V6M17 12L20 10V18" stroke="currentColor" stroke-width="2" stroke-linecap="round" stroke-linejoin="round"></path>
  </symbol>

  <symbol id="wysiwyg-icon-heading-2" viewBox="0 0 24 24" fill="none">
    <path d="M4 12H12M4 18V6M12 18V6M21 18H17C17 14 21 15 21 12C21 10.5 19 9.5 17 11" stroke="currentColor" stroke-width="2" stroke-linecap="round" stroke-linejoin="round"></path>
  </symbol>

  <symbol id="wysiwyg-icon-heading-3" viewBox="0 0 24 24" fill="none">
    <path d="M4 12H12M4 18V6M12 18V6M17.5 10.5C19.2 9.5 21 10.5 21 12C21 12.5304 20.7893 13.0391 20.4142 13.4142C20.0391 13.7893 19.5304 14 19 14C19.5304 14 20.0391 14.2107 20.4142 14.5858C20.7893 14.9609 21 15.4696 21 16C21 17.8 19 19 17 17.5" stroke="currentColor" stroke-width="2" stroke-linecap="round" stroke-linejoin="round"></path>
  </symbol>

  <symbol id="wysiwyg-icon-heading-4" viewBox="0 0 24 24" fill="none">
    <path d="M12 18V6M17 10V13C17 13.2652 17.1054 13.5196 17.2929 13.7071C17.4804 13.8946 17.7348 14 18 14H21M21 10V18M4 12H12M4 18V6" stroke="currentColor" stroke-width="2" stroke-linecap="round" stroke-linejoin="round"></path>
  </symbol>

  <symbol id="wysiwyg-icon-heading-5" viewBox="0 0 24 24" fill="none">
    <path d="M4 12H12M4 18V6M12 18V6M21 10H17V13H18.3C19.8 13 21 14.1 21 15.5C21 16.9 19.8 18 18.3 18C17.8 18 17.4 17.9 17 17.7" stroke="currentColor" stroke-width="2" stroke-linecap="round" stroke-linejoin="round"></path>
  </symbol>

  <symbol id="wysiwyg-icon-heading" viewBox="0 0 24 24" fill="none">
    <path d="M6 12H18M6 20V4M18 20V4" stroke="currentColor" stroke-width="2" stroke-linecap="round" stroke-linejoin="round"></path>
  </symbol>

  <symbol id="wysiwyg-icon-heading-6" viewBox="0 0 24 24" fill="none">
    <path d="M4 12H12M4 18V6M12 18V6M17 16C17 17.1046 17.8954 18 19 18C20.1046 18 21 17.1046 21 16C21 14.8954 20.1046 14 19 14C17.8954 14 17 14.8954 17 16ZM17 16C17 13.5 18 12 20 10" stroke="currentColor" stroke-width="2" stroke-linecap="round" stroke-linejoin="round"></path>
  </symbol>

  <symbol id="wysiwyg-icon-numbers" viewBox="0 0 24 24" fill="none">
    <path d="M11 5H21M11 12H21M11 19H21M4.00002 4H5.00002V9M4.00002 9H6.00002M6.50002 20H3.40002C3.40002 19 6.00002 18.075 6.00002 16.5C6.00006 16.1985 5.90923 15.9039 5.73938 15.6548C5.56952 15.4057 5.32853 15.2135 5.04784 15.1034C4.76714 14.9933 4.45978 14.9703 4.16584 15.0375C3.87189 15.1047 3.60502 15.2589 3.40002 15.48" stroke="currentColor" stroke-width="2" stroke-linecap="round" stroke-linejoin="round"></path>
  </symbol>

  <symbol id="wysiwyg-icon-bullets" viewBox="0 0 24 24" fill="none">
    <path d="M3 5H3.01M3 12H3.01M3 19H3.01M8 5H21M8 12H21M8 19H21" stroke="currentColor" stroke-width="2" stroke-linecap="round" stroke-linejoin="round"></path>
  </symbol>

  <symbol id="wysiwyg-icon-align-center" viewBox="0 0 24 24" fill="none">
    <path d="M21 5H3M17 12H7M19 19H5" stroke="currentColor" stroke-width="2" stroke-linecap="round" stroke-linejoin="round"></path>
  </symbol>

  <symbol id="wysiwyg-icon-align-right" viewBox="0 0 24 24" fill="none">
    <path d="M21 5H3M21 12H9M21 19H7" stroke="currentColor" stroke-width="2" stroke-linecap="round" stroke-linejoin="round"></path>
  </symbol>

  <symbol id="wysiwyg-icon-align-justify" viewBox="0 0 24 24" fill="none">
    <path d="M3 5H21M3 12H21M3 19H21" stroke="currentColor" stroke-width="2" stroke-linecap="round" stroke-linejoin="round"></path>
  </symbol>

  <symbol id="wysiwyg-icon-align-left" viewBox="0 0 24 24" fill="none">
    <path d="M21 5H3M15 12H3M17 19H3" stroke="currentColor" stroke-width="2" stroke-linecap="round" stroke-linejoin="round"></path>
  </symbol>

  <symbol id="wysiwyg-icon-image" viewBox="0 0 24 24" fill="none">
    <path d="M21 15L17.914 11.914C17.5389 11.5391 17.0303 11.3284 16.5 11.3284C15.9697 11.3284 15.4611 11.5391 15.086 11.914L6 21M5 3H19C20.1046 3 21 3.89543 21 5V19C21 20.1046 20.1046 21 19 21H5C3.89543 21 3 20.1046 3 19V5C3 3.89543 3.89543 3 5 3ZM11 9C11 10.1046 10.1046 11 9 11C7.89543 11 7 10.1046 7 9C7 7.89543 7.89543 7 9 7C10.1046 7 11 7.89543 11 9Z" stroke="currentColor" stroke-width="2" stroke-linecap="round" stroke-linejoin="round"></path>
  </symbol>

  <symbol id="wysiwyg-icon-clear-formatting" viewBox="0 0 24 24" fill="none">
    <path d="M20.9999 21H7.99994C7.73624 21.0006 7.47502 20.9491 7.23132 20.8483C6.98762 20.7476 6.76624 20.5996 6.57994 20.413L2.58594 16.414C2.211 16.039 2.00037 15.5303 2.00037 15C2.00037 14.4697 2.211 13.9611 2.58594 13.586L12.5859 3.58601C12.7717 3.40021 12.9922 3.25282 13.2349 3.15226C13.4776 3.0517 13.7377 2.99994 14.0004 2.99994C14.2632 2.99994 14.5233 3.0517 14.766 3.15226C15.0087 3.25282 15.2292 3.40021 15.4149 3.58601L21.4139 9.58601C21.7889 9.96107 21.9995 10.4697 21.9995 11C21.9995 11.5303 21.7889 12.039 21.4139 12.414L12.8339 21M5.08194 11.09L13.9099 19.918" stroke="currentColor" stroke-width="2" stroke-linecap="round" stroke-linejoin="round"></path>
  </symbol>

  <symbol id="wysiwyg-icon-strikethrough" viewBox="0 0 24 24" fill="none">
    <path d="M16 4H9C8.51993 3.99975 8.0468 4.11471 7.62037 4.33524C7.19394 4.55576 6.82667 4.8754 6.54939 5.26731C6.27212 5.65921 6.09295 6.11194 6.02693 6.58745C5.96091 7.06297 6.00998 7.54738 6.17 8M14 12C15.0609 12 16.0783 12.4214 16.8284 13.1716C17.5786 13.9217 18 14.9391 18 16C18 17.0609 17.5786 18.0783 16.8284 18.8284C16.0783 19.5786 15.0609 20 14 20H6M4 12H20" stroke="currentColor" stroke-width="2" stroke-linecap="round" stroke-linejoin="round"></path>
  </symbol>

  <symbol id="wysiwyg-icon-line-height" viewBox="0 0 24 24" fill="none">
    <path d="M21 19H13M19 12H13M21 5L13 5M9 16L6 19M6 19L3 16M6 19L6 5M9 8L6 5M6 5L3 8" stroke="currentColor" stroke-width="2" stroke-linecap="round" stroke-linejoin="round"></path>
  </symbol>

  <symbol id="wysiwyg-icon-font-size" viewBox="0 0 24 24" fill="none">
    <path d="M15 16.9976L17.2149 10.5974C17.2755 10.4223 17.3891 10.2704 17.54 10.1629C17.6909 10.0554 17.8716 9.99762 18.0569 9.99762C18.2422 9.99762 18.4228 10.0554 18.5737 10.1629C18.7247 10.2704 18.8383 10.4223 18.8988 10.5974L21.1138 16.9976M15.6088 15.2508H20.505M2 16.9976L6.039 7.3076C6.07698 7.2165 6.14107 7.13869 6.22319 7.08395C6.30532 7.02921 6.4018 7 6.5005 7C6.5992 7 6.69568 7.02921 6.77781 7.08395C6.85993 7.13869 6.92402 7.2165 6.962 7.3076L11 16.9976M3.304 13.9976H9.696" stroke="currentColor" stroke-width="2" stroke-linecap="round" stroke-linejoin="round"></path>
  </symbol>

  <symbol id="wysiwyg-icon-header-row" viewBox="0 0 24 24" fill="none">
    <path d="M21 9H12M3 9H12M21 15H3M12 9V21M12 21H19C20.1046 21 21 20.1046 21 19V5C21 3.89543 20.1046 3 19 3H5C3.89543 3 3 3.89543 3 5V19C3 20.1046 3.89543 21 5 21H12Z" stroke="currentColor" stroke-width="2" stroke-linecap="round" stroke-linejoin="round"></path>
  </symbol>

  <symbol id="wysiwyg-icon-image-remove" viewBox="0 0 24 24" fill="none">
    <path d="M18.5 4.5L15.5 7.5M15.5 4.5L18.5 7.5M22 6C22 8.76142 19.7614 11 17 11C14.2386 11 12 8.76142 12 6C12 3.23858 14.2386 1 17 1C19.7614 1 22 3.23858 22 6Z" stroke="currentColor" stroke-width="1.5" stroke-linecap="round" stroke-linejoin="round"></path>
    <path d="M20 11V21C20 21.5304 19.7893 22.0391 19.4142 22.4142C19.0391 22.7893 18.5304 23 18 23H4C3.46957 23 2.96086 22.7893 2.58579 22.4142C2.21071 22.0391 2 21.5304 2 21V7C2 6.46957 2.21071 5.96086 2.58579 5.58579C2.96086 5.21071 3.46957 5 4 5H11M20 17L16.914 13.914C16.5389 13.5391 16.0303 13.3284 15.5 13.3284C14.9697 13.3284 14.4611 13.5391 14.086 13.914L5 23M10 11C10 12.1046 9.10457 13 8 13C6.89543 13 6 12.1046 6 11C6 9.89543 6.89543 9 8 9C9.10457 9 10 9.89543 10 11Z" stroke="currentColor" stroke-width="2" stroke-linecap="round" stroke-linejoin="round"></path>
  </symbol>

  <symbol id="wysiwyg-icon-row-before" viewBox="0 0 24 24" fill="none">
    <path d="M3 1L6 4L3 7M10 6H21C21.5523 6 22 6.44772 22 7V12C22 12.5523 21.5523 13 21 13H10C9.44772 13 9 12.5523 9 12V7C9 6.44772 9.44772 6 10 6ZM10 16H21C21.5523 16 22 16.4477 22 17V22C22 22.5523 21.5523 23 21 23H10C9.44772 23 9 22.5523 9 22V17C9 16.4477 9.44772 16 10 16Z" stroke="currentColor" stroke-width="2" stroke-linecap="round" stroke-linejoin="round"></path>
  </symbol>

  <symbol id="wysiwyg-icon-row-after" viewBox="0 0 24 24" fill="none">
    <path d="M3 17L6 20L3 23M10 1H21C21.5523 1 22 1.44772 22 2V7C22 7.55228 21.5523 8 21 8H10C9.44772 8 9 7.55228 9 7V2C9 1.44772 9.44772 1 10 1ZM10 11H21C21.5523 11 22 11.4477 22 12V17C22 17.5523 21.5523 18 21 18H10C9.44772 18 9 17.5523 9 17V12C9 11.4477 9.44772 11 10 11Z" stroke="currentColor" stroke-width="2" stroke-linecap="round" stroke-linejoin="round"></path>
  </symbol>

  <symbol id="wysiwyg-icon-column-after" viewBox="0 0 24 24" fill="none">
    <path d="M23 2L20 5L17 2M2 8H7C7.55228 8 8 8.44772 8 9V20C8 20.5523 7.55228 21 7 21H2C1.44772 21 1 20.5523 1 20V9C1 8.44772 1.44772 8 2 8ZM12 8H17C17.5523 8 18 8.44772 18 9V20C18 20.5523 17.5523 21 17 21H12C11.4477 21 11 20.5523 11 20V9C11 8.44772 11.4477 8 12 8Z" stroke="currentColor" stroke-width="2" stroke-linecap="round" stroke-linejoin="round"></path>
  </symbol>

  <symbol id="wysiwyg-icon-column-before" viewBox="0 0 24 24" fill="none">
    <path d="M7 2L4 5L1 2M7 8H12C12.5523 8 13 8.44772 13 9V20C13 20.5523 12.5523 21 12 21H7C6.44772 21 6 20.5523 6 20V9C6 8.44772 6.44772 8 7 8ZM17 8H22C22.5523 8 23 8.44772 23 9V20C23 20.5523 22.5523 21 22 21H17C16.4477 21 16 20.5523 16 20V9C16 8.44772 16.4477 8 17 8Z" stroke="currentColor" stroke-width="2" stroke-linecap="round" stroke-linejoin="round"></path>
  </symbol>

  <symbol id="wysiwyg-icon-table-remove" viewBox="0 0 24 24" fill="none">
    <path d="M10 1V19M1 7H19" stroke="currentColor" stroke-width="2" stroke-linecap="round" stroke-linejoin="round"></path>
    <path d="M19 9V3C19 1.89543 18.1046 1 17 1H3C1.89543 1 1 1.89543 1 3V17C1 18.1046 1.89543 19 3 19H11.5" stroke="currentColor" stroke-width="2" stroke-linecap="round" stroke-linejoin="round"></path>
    <path d="M1 13H13" stroke="currentColor" stroke-width="2" stroke-linecap="round" stroke-linejoin="round"></path>
    <path d="M19.5 14.5L16.5 17.5M16.5 14.5L19.5 17.5M23 16C23 18.7614 20.7614 21 18 21C15.2386 21 13 18.7614 13 16C13 13.2386 15.2386 11 18 11C20.7614 11 23 13.2386 23 16Z" stroke="currentColor" stroke-width="1.5" stroke-linecap="round" stroke-linejoin="round"></path>
  </symbol>

  <symbol id="wysiwyg-icon-superscript" viewBox="0 0 24 24" fill="none">
    <path d="M4 19L12 11M12 19L4 11M20 12H16C16 10.5 16.442 10 17.5 9.5C18.558 9 20 8.334 20 7.002C20 6.53 19.83 6.072 19.516 5.712C19.196 5.35007 18.7613 5.1092 18.2848 5.02981C17.8083 4.95043 17.319 5.03735 16.899 5.276C16.479 5.515 16.161 5.89 16 6.336" stroke="currentColor" stroke-width="2" stroke-linecap="round" stroke-linejoin="round"></path>
  </symbol>

  <symbol id="wysiwyg-icon-subscript" viewBox="0 0 24 24" fill="none">
    <path d="M4 5L12 13M12 5L4 13M20 19H16C16 17.5 16.44 17 17.5 16.5C18.56 16 20 15.33 20 14C20 13.53 19.83 13.07 19.52 12.71C19.1999 12.3475 18.7649 12.106 18.2879 12.0259C17.811 11.9458 17.321 12.032 16.9 12.27C16.48 12.51 16.16 12.89 16 13.34" stroke="currentColor" stroke-width="2" stroke-linecap="round" stroke-linejoin="round"></path>
  </symbol>

  <symbol id="wysiwyg-icon-image-edit" viewBox="0 0 24 24" fill="none">
    <path d="M21 15L17.914 11.914C17.5389 11.5391 17.0303 11.3284 16.5 11.3284C15.9697 11.3284 15.4611 11.5391 15.086 11.914L6 21M5 3H19C20.1046 3 21 3.89543 21 5V19C21 20.1046 20.1046 21 19 21H5C3.89543 21 3 20.1046 3 19V5C3 3.89543 3.89543 3 5 3ZM11 9C11 10.1046 10.1046 11 9 11C7.89543 11 7 10.1046 7 9C7 7.89543 7.89543 7 9 7C10.1046 7 11 7.89543 11 9Z" stroke="currentColor" stroke-width="2" stroke-linecap="round" stroke-linejoin="round"></path>
  </symbol>

  <symbol id="wysiwyg-icon-row-remove" viewBox="0 0 24 24" fill="none">
    <g clip-path="url(#clip0_29_530)">
      <path d="M19.5 4.5L16.5 7.5M16.5 4.5L19.5 7.5M23 6C23 8.76142 20.7614 11 18 11C15.2386 11 13 8.76142 13 6C13 3.23858 15.2386 1 18 1C20.7614 1 23 3.23858 23 6Z" stroke="currentColor" stroke-width="1.5" stroke-linecap="round" stroke-linejoin="round"></path>
      <path d="M18 16H2C1.44772 16 1 16.4477 1 17V22C1 22.5523 1.44772 23 2 23H18C18.5523 23 19 22.5523 19 22V17C19 16.4477 18.5523 16 18 16Z" stroke="currentColor" stroke-width="2" stroke-linecap="round" stroke-linejoin="round"></path>
      <path d="M12 6H2C1.44772 6 1 6.44772 1 7V12C1 12.5523 1.44772 13 2 13H18C18.5523 13 19 12.5523 19 12V11.5" stroke="currentColor" stroke-width="2" stroke-linecap="round" stroke-linejoin="round"></path>
    </g>
    <defs>
      <clipPath id="wysiwyg-icon-clip0_29_530">
        <rect width="24" height="24" fill="currentColor"></rect>
      </clipPath>
    </defs>
  </symbol>

  <symbol id="wysiwyg-icon-column-remove" viewBox="0 0 24.000001907348633 23.999998092651367" fill="none">
    <g clip-path="url(#clip0_29_531)">
      <path d="M19.5 7.49994L16.5 4.49994M19.5 4.49994L16.5 7.49994M18 10.9999C15.2386 10.9999 13 8.76136 13 5.99994C13 3.23852 15.2386 0.99994 18 0.99994C20.7614 0.99994 23 3.23852 23 5.99994C23 8.76136 20.7614 10.9999 18 10.9999Z" stroke="currentColor" stroke-width="1.5" stroke-linecap="round" stroke-linejoin="round"></path>
      <path d="M8 21.9999L8 5.99994C8 5.44766 7.55228 4.99994 7 4.99994L2 4.99994C1.44772 4.99994 1 5.44765 1 5.99994L0.999999 21.9999C0.999999 22.5522 1.44771 22.9999 2 22.9999L7 22.9999C7.55228 22.9999 8 22.5522 8 21.9999Z" stroke="currentColor" stroke-width="2" stroke-linecap="round" stroke-linejoin="round"></path>
      <path d="M18 11.9999L18 21.9999C18 22.5522 17.5523 22.9999 17 22.9999L12 22.9999C11.4477 22.9999 11 22.5522 11 21.9999L11 5.99988C11 5.44759 11.4477 4.99988 12 4.99988L12.5 4.99988" stroke="currentColor" stroke-width="2" stroke-linecap="round" stroke-linejoin="round"></path>
    </g>
    <defs>
      <clipPath id="wysiwyg-icon-clip0_29_531">
        <rect width="24" height="24" fill="currentColor" transform="translate(24 1.04907e-06) rotate(90)"></rect>
      </clipPath>
    </defs>
  </symbol>

  <symbol id="wysiwyg-icon-rule" viewBox="0 0 24 24" fill="none">
    <path d="M5 12H19" stroke="currentColor" stroke-width="2" stroke-linecap="round" stroke-linejoin="round"></path>
  </symbol>
</svg>